<svg id="Capa_1" data-name="Capa 1" xmlns="http://www.w3.org/2000/svg" viewBox="0 0 60 60"><defs><style>.cls-1{fill:#fff;fill-rule:evenodd;}</style></defs><path class="cls-1" d="M45.62,50.83H38.46a3.25,3.25,0,0,1-3.25-3.26V38.46a3.24,3.24,0,0,1,3.25-3.25h1A1.71,1.71,0,0,0,41.06,34l.69-2.6a1,1,0,0,0-1-1.38H38.46a3.25,3.25,0,0,1-3.25-3.25v-1.3a3.25,3.25,0,0,1,3.25-3.26h1.95a1.3,1.3,0,0,0,1.3-1.3v-2.6A1.31,1.31,0,0,0,40.41,17h-3.9A6.51,6.51,0,0,0,30,23.49v3.26A3.26,3.26,0,0,1,26.75,30h-.62a1.37,1.37,0,0,0-1.34,1.38V34A1.23,1.23,0,0,0,26,35.21h.73A3.25,3.25,0,0,1,30,38.46v9.11a3.26,3.26,0,0,1-3.25,3.26H26.1a1.31,1.31,0,1,1,0-2.61,1.3,1.3,0,0,0,1.3-1.3V39.11a1.3,1.3,0,0,0-1.3-1.3h-.86a3,3,0,0,1-3-3.06v-3.9a3.41,3.41,0,0,1,3.34-3.45h.57a1.31,1.31,0,0,0,1.3-1.3V22.84a8.46,8.46,0,0,1,8.46-8.46h5.2a3.26,3.26,0,0,1,3.26,3.25v3.91a3.25,3.25,0,0,1-3.26,3.25H37.81V26.1a1.3,1.3,0,0,0,1.3,1.3h2.44a2.75,2.75,0,0,1,2.69,3.45l-.73,3.9a3.84,3.84,0,0,1-3.63,3.06h-.77a1.3,1.3,0,0,0-1.3,1.3v7.81a1.3,1.3,0,0,0,1.3,1.3h6.51a2.59,2.59,0,0,0,2.6-2.6V14.38a2.59,2.59,0,0,0-2.6-2.6H14.38a2.59,2.59,0,0,0-2.6,2.6V45.62a2.59,2.59,0,0,0,2.6,2.6h1.3a1.31,1.31,0,1,1,0,2.61h-1.3a5.22,5.22,0,0,1-5.21-5.21V14.38a5.22,5.22,0,0,1,5.21-5.21H45.62a5.21,5.21,0,0,1,5.21,5.21V45.62A5.21,5.21,0,0,1,45.62,50.83ZM20.89,48.22a1.31,1.31,0,1,1-1.3,1.3A1.3,1.3,0,0,1,20.89,48.22Z"/></svg>