<svg id="Capa_1" data-name="Capa 1" xmlns="http://www.w3.org/2000/svg" viewBox="0 0 60 60"><defs><style>.cls-1{fill:#fff;fill-rule:evenodd;}</style></defs><path class="cls-1" d="M23.44,35.25a1.29,1.29,0,0,1,1.33,1.27,1.31,1.31,0,0,1-1.27,1.34h-.06a1.32,1.32,0,0,1-1.28-1.34A1.3,1.3,0,0,1,23.44,35.25Zm-3.83-3.74a10.49,10.49,0,1,1,11.88,8.88l-.19,0,.19,0a1.31,1.31,0,0,1-.37-2.6h0a7.86,7.86,0,1,0-8.9-6.66h0a1.31,1.31,0,0,1-2.6.37h0l0,.19C19.64,31.63,19.62,31.57,19.61,31.51Zm20.86-14a2,2,0,0,1,3.94,0v.06a2,2,0,0,1-3.94,0Zm7,29.81C45.19,49.68,42,51,36.56,51H23.44c-5.47,0-8.63-1.28-10.91-3.59S9,41.93,9,36.56V23.44c0-5.37,1.25-8.54,3.49-10.81S18,9,23.44,9H36.56c5.47,0,8.63,1.28,10.91,3.59a6.1,6.1,0,0,1,.41.46,1.3,1.3,0,0,1,.46,1A1.31,1.31,0,0,1,47,15.39h0a1.3,1.3,0,0,1-1-.46l0,0a4.72,4.72,0,0,0-.41-.48c-2-2-4.93-2.81-9.72-2.81H24.1c-4.78,0-7.72.79-9.71,2.81s-2.73,4.94-2.73,9.64V35.9c0,4.7.76,7.64,2.73,9.63s4.93,2.81,9.71,2.81H35.89c4.79,0,7.73-.8,9.72-2.81s2.73-4.93,2.73-9.63V24.11c0-1.05-.05-2.09-.15-3.13h0a1.32,1.32,0,0,1,2.63-.26v.05h0A26.71,26.71,0,0,1,51,23.44V36.56C51,41.93,49.71,45.1,47.47,47.37Z"/></svg>