<svg id="Capa_1" data-name="Capa 1" xmlns="http://www.w3.org/2000/svg" viewBox="0 0 120 17"><defs><style>.cls-1{fill:#fff;}.cls-2{fill:#10ccff;}</style></defs><path class="cls-1" d="M1.37,14.31V2a1,1,0,0,1,.27-.69A.87.87,0,0,1,2.3,1H6.35a1.14,1.14,0,0,1,.74.28,1.4,1.4,0,0,1,.47.67l2.94,8.51,2.94-8.51a1.34,1.34,0,0,1,.47-.67A1.12,1.12,0,0,1,14.64,1H18.7a.83.83,0,0,1,.65.28,1,1,0,0,1,.27.69V14.31a1,1,0,0,1-.28.69.9.9,0,0,1-.66.27H16.89a.94.94,0,0,1-.67-.27,1,1,0,0,1-.27-.69V4.58l-3.52,9.79a1.37,1.37,0,0,1-.49.64,1.23,1.23,0,0,1-.73.26H9.78A1.21,1.21,0,0,1,9.05,15a1.44,1.44,0,0,1-.49-.64L5.05,4.58v9.73a.92.92,0,0,1-.28.69.9.9,0,0,1-.66.27H2.32A.94.94,0,0,1,1.65,15,.92.92,0,0,1,1.37,14.31Z"/><path class="cls-1" d="M21.3,14.35l2.5-9.48C24.48,2.28,26.69,1,30.42,1h5.37a.75.75,0,0,1,.61.28.93.93,0,0,1,.25.65V14.35a.91.91,0,0,1-.28.66,1,1,0,0,1-.67.26H33.83a.89.89,0,0,1-.94-.94V11.82H25.8l-.66,2.51a1.21,1.21,0,0,1-.45.68,1.24,1.24,0,0,1-.74.26H22a.65.65,0,0,1-.56-.22.63.63,0,0,1-.16-.4A1.39,1.39,0,0,1,21.3,14.35ZM26.54,9h6.35V3.8H30.05a2.64,2.64,0,0,0-2.63,2Z"/><path class="cls-1" d="M54.33,14.84c0,.29-.16.43-.5.43H51.44A1.68,1.68,0,0,1,50.6,15a2.11,2.11,0,0,1-.69-.67l-1.69-2.65a3,3,0,0,0-2.53-1.63H43.25v4.28A.94.94,0,0,1,43,15a.9.9,0,0,1-.66.27H40.44a.94.94,0,0,1-.94-.94V1.93a.94.94,0,0,1,.27-.67A.85.85,0,0,1,40.42,1h8.22a5.63,5.63,0,0,1,3.75,1.23,4.1,4.1,0,0,1,1.46,3.31c0,1.93-1.26,3.14-3.76,3.63a3,3,0,0,1,1.11.75,12.62,12.62,0,0,1,1.16,1.55l1.82,2.88A1.12,1.12,0,0,1,54.33,14.84ZM43.25,7.23H47.5a3.89,3.89,0,0,0,1.81-.41,1.37,1.37,0,0,0,.78-1.3,1.37,1.37,0,0,0-.78-1.31A3.89,3.89,0,0,0,47.5,3.8H43.25Z"/><path class="cls-1" d="M54.81,14.35l2.5-9.48C58,2.28,60.2,1,63.93,1H69.3a.75.75,0,0,1,.61.28.93.93,0,0,1,.25.65V14.35a.87.87,0,0,1-.28.66,1,1,0,0,1-.67.26H67.34a.91.91,0,0,1-.94-.94V11.82H59.32l-.67,2.51a1.21,1.21,0,0,1-.45.68,1.24,1.24,0,0,1-.74.26h-2a.66.66,0,0,1-.56-.22.63.63,0,0,1-.16-.4A1.39,1.39,0,0,1,54.81,14.35ZM60.05,9H66.4V3.8H63.56a2.69,2.69,0,0,0-1.67.54,2.73,2.73,0,0,0-1,1.46Z"/><path class="cls-2" d="M73,3.82V1.49A.47.47,0,0,1,73.46,1H85.53a.47.47,0,0,1,.47.47V3.82a.47.47,0,0,1-.47.47H73.46A.47.47,0,0,1,73,3.82ZM76.9,15.55v-10a.47.47,0,0,1,.47-.47h4.25a.47.47,0,0,1,.47.47v10a.47.47,0,0,1-.47.47H77.37A.47.47,0,0,1,76.9,15.55Z"/><path class="cls-2" d="M93.76,1H90.58a.47.47,0,0,0-.33.14L87.49,3.88a.47.47,0,0,0-.14.33v8.62a.47.47,0,0,0,.14.33l2.76,2.72a.47.47,0,0,0,.33.14h3.18a.47.47,0,0,0,.47-.47V13.44a.47.47,0,0,0-.47-.47h-.93a.47.47,0,0,1-.47-.47v-8a.47.47,0,0,1,.47-.47h.93a.47.47,0,0,0,.47-.47V1.49A.47.47,0,0,0,93.76,1Z"/><path class="cls-2" d="M101.79,3.88,99,1.16A.47.47,0,0,0,98.71,1H95.49a.47.47,0,0,0-.47.47v2.1a.47.47,0,0,0,.47.47h1a.47.47,0,0,1,.47.47v8a.47.47,0,0,1-.47.47h-1a.47.47,0,0,0-.47.47v2.11a.47.47,0,0,0,.47.47H98.7a.48.48,0,0,0,.34-.14l2.75-2.72a.47.47,0,0,0,.14-.33V4.21A.47.47,0,0,0,101.79,3.88Z"/><path class="cls-2" d="M105.11,3.88a.47.47,0,0,0-.88.24V15.55a.47.47,0,0,0,.47.47h3.41a.47.47,0,0,0,.47-.47V9.71a.45.45,0,0,0-.07-.25Z"/><path class="cls-2" d="M109.65,1.25a.49.49,0,0,0-.41-.23h-4.17a.47.47,0,0,0-.4.72l8.51,14.05a.48.48,0,0,0,.4.23h4.21a.47.47,0,0,0,.4-.72Z"/><path class="cls-2" d="M118.16,1h-3.41a.47.47,0,0,0-.47.47V7.3a.42.42,0,0,0,.07.24l3.41,5.61a.47.47,0,0,0,.87-.24V1.49A.47.47,0,0,0,118.16,1Z"/></svg>