<svg id="Capa_1" data-name="Capa 1" xmlns="http://www.w3.org/2000/svg" xmlns:xlink="http://www.w3.org/1999/xlink" viewBox="0 0 129 141"><defs><style>.cls-1{fill:url(#Degradado_sin_nombre_82);}.cls-2{font-size:16.9px;fill:#fff;font-family:DaysOne-Regular, Days One;}.cls-3{fill:#10ccff;}</style><radialGradient id="Degradado_sin_nombre_82" cx="64" cy="74.66" r="50.34" gradientUnits="userSpaceOnUse"><stop offset="0" stop-color="#0b8fb3"/><stop offset="0.12" stop-color="#086882" stop-opacity="0.97"/><stop offset="0.26" stop-color="#054354" stop-opacity="0.95"/><stop offset="0.39" stop-color="#03262f" stop-opacity="0.93"/><stop offset="0.5" stop-color="#011115" stop-opacity="0.91"/><stop offset="0.61" stop-color="#000406" stop-opacity="0.9"/><stop offset="0.7" stop-opacity="0.9"/><stop offset="1" stop-opacity="0"/></radialGradient></defs><rect class="cls-1" x="13.66" y="24.32" width="100.68" height="100.68" rx="23.66"/><text class="cls-2" transform="translate(34.41 69.63)">MARA</text><path class="cls-3" d="M35.17,76V73.1a.58.58,0,0,1,.59-.59H50.85a.58.58,0,0,1,.59.59V76a.59.59,0,0,1-.59.59H35.76A.59.59,0,0,1,35.17,76Zm4.89,14.66V78.15a.59.59,0,0,1,.59-.59H46a.6.6,0,0,1,.59.59V90.66a.59.59,0,0,1-.59.59H40.65A.58.58,0,0,1,40.06,90.66Z"/><path class="cls-3" d="M61.14,72.51h-4a.59.59,0,0,0-.42.17l-3.45,3.4a.59.59,0,0,0-.17.42V87.26a.59.59,0,0,0,.17.42l3.45,3.4a.59.59,0,0,0,.42.17h4a.58.58,0,0,0,.59-.59V88a.58.58,0,0,0-.59-.59H60a.6.6,0,0,1-.59-.59V76.9a.59.59,0,0,1,.59-.59h1.17a.59.59,0,0,0,.59-.59V73.1A.58.58,0,0,0,61.14,72.51Z"/><path class="cls-3" d="M71.18,76.08l-3.44-3.4a.59.59,0,0,0-.42-.17h-4a.58.58,0,0,0-.59.59v2.62a.59.59,0,0,0,.59.59h1.21a.59.59,0,0,1,.59.59v9.95a.6.6,0,0,1-.59.59H63.31a.58.58,0,0,0-.59.59v2.63a.58.58,0,0,0,.59.59h4a.59.59,0,0,0,.42-.17l3.44-3.4a.59.59,0,0,0,.17-.42V76.5A.59.59,0,0,0,71.18,76.08Z"/><path class="cls-3" d="M75.32,76.08a.59.59,0,0,0-1.09.3V90.66a.59.59,0,0,0,.59.59h4.26a.58.58,0,0,0,.59-.59V83.37a.56.56,0,0,0-.09-.31Z"/><path class="cls-3" d="M81,72.79a.58.58,0,0,0-.5-.28H75.28a.59.59,0,0,0-.51.89L85.42,91a.58.58,0,0,0,.5.28h5.26a.59.59,0,0,0,.51-.89Z"/><path class="cls-3" d="M91.64,72.51H87.38a.59.59,0,0,0-.59.59v7.25a.56.56,0,0,0,.09.31l4.26,7a.59.59,0,0,0,1.09-.3V73.1A.58.58,0,0,0,91.64,72.51Z"/></svg>