<svg id="Capa_1" data-name="Capa 1" xmlns="http://www.w3.org/2000/svg" xmlns:xlink="http://www.w3.org/1999/xlink" viewBox="0 0 135.08 136.65"><defs><style>.cls-1{fill:url(#Degradado_sin_nombre_82);}.cls-2{fill:#fff;}.cls-3{fill:#10ccff;}</style><radialGradient id="Degradado_sin_nombre_82" cx="66.56" cy="67.52" r="67.44" gradientUnits="userSpaceOnUse"><stop offset="0" stop-color="#0b8fb3"/><stop offset="0.12" stop-color="#086882" stop-opacity="0.97"/><stop offset="0.26" stop-color="#054354" stop-opacity="0.95"/><stop offset="0.39" stop-color="#03262f" stop-opacity="0.93"/><stop offset="0.5" stop-color="#011115" stop-opacity="0.91"/><stop offset="0.61" stop-color="#000406" stop-opacity="0.9"/><stop offset="0.7" stop-opacity="0.9"/><stop offset="1" stop-opacity="0"/></radialGradient></defs><rect class="cls-1" x="-0.88" y="0.08" width="134.88" height="134.88" rx="38.88"/><path class="cls-2" d="M31.07,57.74V45a1,1,0,0,1,.27-.71A.94.94,0,0,1,32,44h4.19a1.21,1.21,0,0,1,.76.29,1.36,1.36,0,0,1,.48.69l3,8.78,3-8.78a1.36,1.36,0,0,1,.48-.69,1.23,1.23,0,0,1,.76-.29H49a.88.88,0,0,1,.67.29,1,1,0,0,1,.28.71V57.74a1,1,0,0,1-.29.71.91.91,0,0,1-.68.28H47.08a.94.94,0,0,1-.69-.28,1,1,0,0,1-.28-.71v-10L42.48,57.8a1.39,1.39,0,0,1-.5.66,1.26,1.26,0,0,1-.76.27H39.75a1.24,1.24,0,0,1-.76-.27,1.48,1.48,0,0,1-.51-.66L34.86,47.7v10a1,1,0,0,1-.28.71.93.93,0,0,1-.68.28H32a1,1,0,0,1-1-1Z"/><path class="cls-2" d="M51.63,57.78,54.22,48q1.05-4,6.82-4h5.55a.82.82,0,0,1,.63.29,1,1,0,0,1,.25.67V57.78a.87.87,0,0,1-.29.68,1,1,0,0,1-.69.27H64.56a.93.93,0,0,1-.69-.27,1,1,0,0,1-.28-.7V55.17H56.28l-.69,2.59a1.18,1.18,0,0,1-.46.7,1.24,1.24,0,0,1-.76.27h-2a.68.68,0,0,1-.57-.23.69.69,0,0,1-.17-.41A1.48,1.48,0,0,1,51.63,57.78ZM57,52.26h6.55V46.89H60.66a2.79,2.79,0,0,0-1.72.56A2.76,2.76,0,0,0,58,49Z"/><path class="cls-2" d="M85.73,58.29c0,.29-.18.44-.53.44H82.73a1.7,1.7,0,0,1-.86-.28,2,2,0,0,1-.71-.69L79.41,55a3.09,3.09,0,0,0-2.61-1.69H74.29v4.42a1,1,0,0,1-1,1H71.39a1,1,0,0,1-1-1V45a.94.94,0,0,1,.28-.69.92.92,0,0,1,.68-.29h8.48a5.76,5.76,0,0,1,3.86,1.27,4.2,4.2,0,0,1,1.51,3.41q0,3-3.88,3.76a3,3,0,0,1,1.15.77,11.16,11.16,0,0,1,1.2,1.6l1.87,3A1.12,1.12,0,0,1,85.73,58.29ZM74.29,50.43h4.38A4,4,0,0,0,80.54,50a1.54,1.54,0,0,0,0-2.7,4,4,0,0,0-1.87-.42H74.29Z"/><path class="cls-2" d="M86.22,57.78,88.8,48c.7-2.66,3-4,6.83-4h5.54a.8.8,0,0,1,.63.29,1,1,0,0,1,.26.67V57.78a.91.91,0,0,1-.29.68,1,1,0,0,1-.69.27H99.15a.94.94,0,0,1-.7-.27,1,1,0,0,1-.27-.7V55.17H90.87l-.69,2.59a1.19,1.19,0,0,1-.47.7,1.22,1.22,0,0,1-.76.27h-2a.7.7,0,0,1-.58-.23.76.76,0,0,1-.17-.41A2.61,2.61,0,0,1,86.22,57.78Zm5.41-5.52h6.55V46.89H95.25a2.82,2.82,0,0,0-1.73.56,2.76,2.76,0,0,0-1,1.51Z"/><path class="cls-3" d="M31,66.67V63.05a.73.73,0,0,1,.73-.73H50.55a.72.72,0,0,1,.73.73v3.62a.72.72,0,0,1-.73.73H31.73A.73.73,0,0,1,31,66.67ZM37.09,85V69.35a.74.74,0,0,1,.74-.73h6.63a.73.73,0,0,1,.73.73V85a.73.73,0,0,1-.73.73H37.83A.74.74,0,0,1,37.09,85Z"/><path class="cls-3" d="M63.37,62.32H58.42a.73.73,0,0,0-.52.21l-4.3,4.24a.71.71,0,0,0-.22.52V80.71a.73.73,0,0,0,.22.52l4.3,4.24a.73.73,0,0,0,.52.21h4.95A.73.73,0,0,0,64.1,85V81.66a.73.73,0,0,0-.73-.73H61.92a.74.74,0,0,1-.74-.74V67.79a.74.74,0,0,1,.74-.74h1.45a.73.73,0,0,0,.73-.73V63.05A.72.72,0,0,0,63.37,62.32Z"/><path class="cls-3" d="M75.88,66.77l-4.29-4.24a.71.71,0,0,0-.51-.21h-5a.73.73,0,0,0-.73.73v3.27a.73.73,0,0,0,.73.73h1.51a.74.74,0,0,1,.73.74v12.4a.74.74,0,0,1-.73.74H66.07a.73.73,0,0,0-.73.73V85a.73.73,0,0,0,.73.73h5a.71.71,0,0,0,.51-.21l4.29-4.24a.73.73,0,0,0,.22-.52V67.29A.71.71,0,0,0,75.88,66.77Z"/><path class="cls-3" d="M81.05,66.77a.73.73,0,0,0-1.36.38V85a.73.73,0,0,0,.73.73h5.31a.74.74,0,0,0,.74-.73v-9.1a.73.73,0,0,0-.11-.38Z"/><path class="cls-3" d="M88.13,62.67a.74.74,0,0,0-.63-.35H81a.73.73,0,0,0-.63,1.11l13.27,21.9a.73.73,0,0,0,.63.35h6.56a.73.73,0,0,0,.62-1.11Z"/><path class="cls-3" d="M101.39,62.32H96.08a.73.73,0,0,0-.74.73v9a.77.77,0,0,0,.11.39l5.31,8.74a.73.73,0,0,0,1.36-.38V63.05A.73.73,0,0,0,101.39,62.32Z"/></svg>