<svg id="Capa_1" data-name="Capa 1" xmlns="http://www.w3.org/2000/svg" xmlns:xlink="http://www.w3.org/1999/xlink" viewBox="0 0 60 60"><defs><style>.cls-1{fill:url(#Degradado_sin_nombre_6);}.cls-2{fill:#fff;}.cls-3{fill:#10ccff;}</style><radialGradient id="Degradado_sin_nombre_6" cx="29.91" cy="29.91" r="30.09" gradientUnits="userSpaceOnUse"><stop offset="0" stop-color="#0b8fb3"/><stop offset="0.12" stop-color="#0a84a5" stop-opacity="0.99"/><stop offset="0.35" stop-color="#086882" stop-opacity="0.97"/><stop offset="0.66" stop-color="#043948" stop-opacity="0.94"/><stop offset="1" stop-opacity="0.9"/></radialGradient></defs><rect class="cls-1" x="-0.19" y="-0.19" width="60.19" height="60.19" rx="21.47"/><path class="cls-2" d="M4.68,39.65V20.05A1.51,1.51,0,0,1,5.11,19a1.4,1.4,0,0,1,1-.44h6.43a1.88,1.88,0,0,1,1.17.44A2.19,2.19,0,0,1,14.49,20l4.66,13.5L23.81,20A2.21,2.21,0,0,1,24.56,19a1.83,1.83,0,0,1,1.16-.44h6.43a1.38,1.38,0,0,1,1,.44,1.54,1.54,0,0,1,.42,1.1v19.6a1.47,1.47,0,0,1-.44,1.08,1.44,1.44,0,0,1-1.05.44H29.28a1.44,1.44,0,0,1-1.05-.44,1.47,1.47,0,0,1-.44-1.08V24.22L22.22,39.75a2.27,2.27,0,0,1-.78,1,1.91,1.91,0,0,1-1.17.42H18a1.88,1.88,0,0,1-1.16-.42,2.42,2.42,0,0,1-.78-1L10.51,24.22V39.65a1.46,1.46,0,0,1-.43,1.08A1.44,1.44,0,0,1,9,41.17H6.18a1.5,1.5,0,0,1-1.5-1.52Z"/><path class="cls-3" d="M35.53,22.93v-3.5a.71.71,0,0,1,.71-.71H54.42a.71.71,0,0,1,.71.71v3.5a.71.71,0,0,1-.71.71H36.24A.71.71,0,0,1,35.53,22.93Zm5.89,17.66V25.52a.71.71,0,0,1,.71-.71h6.41a.71.71,0,0,1,.71.71V40.59a.71.71,0,0,1-.71.71H42.13A.71.71,0,0,1,41.42,40.59Z"/></svg>