<svg id="Capa_1" data-name="Capa 1" xmlns="http://www.w3.org/2000/svg" viewBox="0 0 56 57"><defs><style>.cls-1{fill:#fc0000;}</style></defs><path class="cls-1" d="M25,17.16c-.18-.16-3.24-2.93-7-2.06-3.19.74-4.73,3.61-5.29,4.62a12.28,12.28,0,0,0,.7,13L27.2,48.08a.87.87,0,0,0,.3.1,1,1,0,0,0,.7-.17L41.52,32a12.6,12.6,0,0,0,1.85-8.83c-.24-1.55-.88-5.9-4.51-7.7a7.09,7.09,0,0,0-7,.25,8.06,8.06,0,0,0-2.71,4.2,8.1,8.1,0,0,0-.69,3.58c0,.19.05.46,0,.48C28.22,24,27.72,19.71,25,17.16Z"/><path class="cls-1" d="M27.5,3.5a25,25,0,0,0-25,25,25.82,25.82,0,0,0,.29,3.84,1,1,0,0,0,2-.31,23,23,0,1,1,5,11.06,1,1,0,1,0-1.55,1.27A25,25,0,1,0,27.5,3.5Z"/><path class="cls-1" d="M5.86,36A2,2,0,1,0,8,37.86,2,2,0,0,0,5.86,36Z"/></svg>