<svg id="Capa_1" data-name="Capa 1" xmlns="http://www.w3.org/2000/svg" xmlns:xlink="http://www.w3.org/1999/xlink" viewBox="0 0 36 42"><defs><style>.cls-1,.cls-4{fill:#81d4fa;}.cls-2{fill:#4fc3f7;}.cls-2,.cls-4,.cls-5,.cls-6{fill-rule:evenodd;}.cls-3,.cls-5{fill:#fff;}.cls-6{fill:url(#Degradado_sin_nombre_490);}</style><linearGradient id="Degradado_sin_nombre_490" x1="14.43" y1="19.6" x2="21.57" y2="19.6" gradientUnits="userSpaceOnUse"><stop offset="0" stop-color="#086a85"/><stop offset="0.03" stop-color="#08647e"/><stop offset="0.26" stop-color="#054051"/><stop offset="0.47" stop-color="#03242e"/><stop offset="0.67" stop-color="#011015"/><stop offset="0.85" stop-color="#000405"/><stop offset="1"/></linearGradient></defs><g id="Layer_1"><path class="cls-1" d="M18,36.14A15.14,15.14,0,1,1,33.14,21a1.46,1.46,0,0,1-2.92,0,12.21,12.21,0,1,0-3,8.06A1.46,1.46,0,0,1,29.38,31,15.14,15.14,0,0,1,18,36.14Z"/><g id="_289347416" data-name=" 289347416"><g id="_289347584" data-name=" 289347584"><path class="cls-2" d="M23.32,18.66c.38.26.76.52.76.94s-.38.68-.76.94c-.22.15-.44.3-.47.4a1.38,1.38,0,0,0,.21.59c.2.4.39.79.19,1.14s-.65.37-1.09.39H22l1.88,3.29h0a.3.3,0,0,1-.11.42.37.37,0,0,1-.18,0l-1.77-.15L21,28.3h0a.3.3,0,0,1-.4.15.34.34,0,0,1-.15-.14l-1.75-3.08a1,1,0,0,1-.72.45.91.91,0,0,1-.69-.41l-1.78,3a.34.34,0,0,1-.15.14.3.3,0,0,1-.4-.15h0l-.76-1.63-1.77.15a.37.37,0,0,1-.18,0,.3.3,0,0,1-.11-.42h0l1.93-3.28-.25,0c-.44,0-.89,0-1.09-.39s0-.74.19-1.14a1.38,1.38,0,0,0,.21-.59c0-.1-.25-.25-.47-.4-.38-.26-.76-.52-.76-.94s.38-.68.76-.94c.22-.15.44-.3.47-.4a1.38,1.38,0,0,0-.21-.59c-.2-.4-.39-.79-.19-1.14s.65-.37,1.09-.39a1.44,1.44,0,0,0,.6-.1c.07-.06.08-.33.1-.6,0-.44,0-.89.39-1.09s.74,0,1.14.19a1.38,1.38,0,0,0,.59.21c.1,0,.25-.25.4-.47.26-.38.52-.76.94-.76s.68.38.94.76c.15.22.3.44.4.47a1.38,1.38,0,0,0,.59-.21c.4-.2.79-.39,1.14-.19s.37.65.39,1.09c0,.27,0,.54.1.6a1.44,1.44,0,0,0,.6.1c.44,0,.89,0,1.09.39s0,.74-.19,1.14a1.38,1.38,0,0,0-.21.59c0,.1.25.25.47.4Z"/></g></g><path class="cls-3" d="M18.23,24.38l2.24,3.93a.34.34,0,0,0,.15.14.3.3,0,0,0,.4-.15l-.27-.12.27.12.76-1.63,1.77.15a.37.37,0,0,0,.18,0,.3.3,0,0,0,.11-.42h0l-2.37-4.15-.29,0a2.87,2.87,0,0,0,0,.38c0,.5-.06,1.06-.54,1.34a1.5,1.5,0,0,1-1.44-.18c-.07,0-.25-.13-.37-.17s-.18.26-.23.33a3.54,3.54,0,0,1-.34.45ZM14.54,22.3l-2.38,4.06h0a.3.3,0,0,0,.11.42.37.37,0,0,0,.18,0l1.77-.15L15,28.3l.27-.12L15,28.3a.3.3,0,0,0,.4.15.34.34,0,0,0,.15-.14l2.25-3.83a5.48,5.48,0,0,1-.34-.46,3.43,3.43,0,0,0-.23-.32,2.63,2.63,0,0,0-.37.17,1.45,1.45,0,0,1-1.43.17c-.49-.28-.52-.84-.55-1.34,0-.07,0-.26,0-.37s-.21,0-.3,0Z"/><path class="cls-4" d="M18,13.52c.42,0,.68.38.94.76.15.22.3.44.4.47a1.38,1.38,0,0,0,.59-.21c.4-.2.79-.39,1.14-.19s.37.65.39,1.09c0,.27,0,.54.1.6a1.44,1.44,0,0,0,.6.1c.44,0,.89,0,1.09.39s0,.74-.19,1.14a1.38,1.38,0,0,0-.21.59c0,.1.25.25.47.4.38.26.76.52.76.94s-.38.68-.76.94c-.22.15-.44.3-.47.4a1.38,1.38,0,0,0,.21.59c.2.4.39.79.19,1.14s-.65.37-1.09.39a1.44,1.44,0,0,0-.6.1,1.44,1.44,0,0,0-.1.6c0,.44,0,.89-.39,1.09s-.74,0-1.14-.19a1.38,1.38,0,0,0-.59-.21c-.1,0-.25.25-.4.47-.26.38-.52.76-.94.76s-.68-.38-.94-.76c-.15-.22-.3-.44-.4-.47a1.38,1.38,0,0,0-.59.21c-.4.2-.79.39-1.14.19s-.37-.65-.39-1.09a1.44,1.44,0,0,0-.1-.6,1.44,1.44,0,0,0-.6-.1c-.44,0-.89,0-1.09-.39s0-.74.19-1.14a1.38,1.38,0,0,0,.21-.59c0-.1-.25-.25-.47-.4-.38-.26-.76-.52-.76-.94s.38-.68.76-.94c.22-.15.44-.3.47-.4a1.38,1.38,0,0,0-.21-.59c-.2-.4-.39-.79-.19-1.14s.65-.37,1.09-.39a1.44,1.44,0,0,0,.6-.1c.07-.06.08-.33.1-.6,0-.44,0-.89.39-1.09s.74,0,1.14.19a1.38,1.38,0,0,0,.59.21c.1,0,.25-.25.4-.47.26-.38.52-.76.94-.76Z"/><path class="cls-5" d="M18,15.43a4.17,4.17,0,1,1-2.95,1.22A4.13,4.13,0,0,1,18,15.43Z"/><path class="cls-6" d="M20.52,17.08a3.55,3.55,0,1,0,1.05,2.52,3.54,3.54,0,0,0-1.05-2.52Z"/><path class="cls-4" d="M20.32,18.64a.3.3,0,0,0-.43-.43l-2.55,2.54-1.23-1.23a.3.3,0,0,0-.43.43l1.45,1.45h0a.3.3,0,0,0,.43,0h0Z"/><circle class="cls-1" cx="30.55" cy="26.01" r="1.61"/></g></svg>