<svg id="Capa_1" data-name="Capa 1" xmlns="http://www.w3.org/2000/svg" viewBox="0 0 60 60"><defs><style>.cls-1,.cls-2{fill:#fff;}.cls-1{fill-rule:evenodd;}</style></defs><path class="cls-1" d="M47.73,47.64c-2.31,2.34-5.52,3.64-11.07,3.64H23.34c-5.55,0-8.76-1.3-11.07-3.64s-3.55-5.52-3.55-11V23.34c0-5.46,1.26-8.67,3.55-11s5.52-3.64,11.07-3.64H36.66c5.55,0,8.76,1.3,11.07,3.64a6.14,6.14,0,0,1,.42.47,1.33,1.33,0,0,1-.86,2.34h0a1.35,1.35,0,0,1-1-.47h0c-.14-.16-.27-.33-.42-.48-2-2.05-5-2.85-9.87-2.85H24c-4.86,0-7.84.8-9.86,2.85s-2.77,5-2.77,9.79V36c0,4.77.77,7.76,2.77,9.78s5,2.85,9.86,2.85H36c4.86,0,7.85-.81,9.87-2.85s2.77-5,2.77-9.78V24c0-1.06,0-2.13-.15-3.18h0a1.34,1.34,0,0,1,2.67-.28v.06h0c.09.9.13,1.81.13,2.72V36.66C51.28,42.12,50,45.33,47.73,47.64Z"/><path class="cls-2" d="M26.59,44.89a9.63,9.63,0,0,1-.91-19.22l.17,0,.33,0,.41,0a10,10,0,0,1,1.3.09.6.6,0,0,1,.52.6v5a.58.58,0,0,1-.25.48.56.56,0,0,1-.53.09,3.46,3.46,0,0,0-1-.16,3.53,3.53,0,0,0-3.53,3.53,3.44,3.44,0,0,0,.67,2.05.6.6,0,0,1,.08.16,3.52,3.52,0,0,0,6.26-2.07V15.71a.6.6,0,0,1,.6-.6h4.94a.6.6,0,0,1,.6.6,6.23,6.23,0,0,0,1.53,4.09l.09.13a6.23,6.23,0,0,0,3.29,1.9,6.41,6.41,0,0,0,1.31.14.6.6,0,0,1,.6.6v4.91a.6.6,0,0,1-.6.6,12.43,12.43,0,0,1-3.59-.53.61.61,0,0,1,.35-1.16,11.26,11.26,0,0,0,2.63.47V23.15a7.37,7.37,0,0,1-5-2.54h0a.55.55,0,0,1-.17-.23A7.37,7.37,0,0,1,35,16.31H31.28V35.43A4.72,4.72,0,0,1,26.56,40a4.78,4.78,0,0,1-3.84-2,.48.48,0,0,1-.09-.19,4.61,4.61,0,0,1-.77-2.57,4.74,4.74,0,0,1,4.73-4.74,4.44,4.44,0,0,1,.62.05V26.84l-.62,0h-.06l-.15,0A8.43,8.43,0,1,0,35,35.26V28.94a.61.61,0,1,1,1.21,0v6.32A9.64,9.64,0,0,1,26.59,44.89Zm8.89-19.35a.91.91,0,1,1,.9-.91A.91.91,0,0,1,35.48,25.54Z"/><path class="cls-2" d="M26.59,45.15a9.89,9.89,0,0,1-.93-19.73.44.44,0,0,1,.19,0h.32l.42,0a9,9,0,0,1,1.33.1.85.85,0,0,1,.75.85v5a.86.86,0,0,1-.35.69.88.88,0,0,1-.77.13,3.25,3.25,0,0,0-4.23,3.12,3.2,3.2,0,0,0,.62,1.9,1.62,1.62,0,0,1,.1.18,3.26,3.26,0,0,0,5.78-2V15.71a.87.87,0,0,1,.86-.86h4.94a.87.87,0,0,1,.86.86,6,6,0,0,0,1.46,3.92.53.53,0,0,1,.11.15,6,6,0,0,0,3.13,1.8,5.86,5.86,0,0,0,1.26.13.87.87,0,0,1,.86.86v4.91a.87.87,0,0,1-.86.86,12.53,12.53,0,0,1-3.66-.55.86.86,0,1,1,.5-1.64,10.38,10.38,0,0,0,2.3.43v-3.2c-.26,0-.51-.07-.76-.12a7.76,7.76,0,0,1-4.18-2.48.71.71,0,0,1-.2-.27,7.65,7.65,0,0,1-1.63-3.94H31.54V35.41a5,5,0,0,1-5,4.84,5,5,0,0,1-4-2.08,1,1,0,0,1-.12-.23,4.91,4.91,0,0,1-.79-2.68,5,5,0,0,1,5.35-5v-3.2h-.36l-.2,0a8.17,8.17,0,1,0,8.37,8.16V28.94a.86.86,0,1,1,1.71,0v6.32A9.9,9.9,0,0,1,26.59,45.15Zm0-19.28-.39,0h-.1l-.24,0h-.1a9.46,9.46,0,0,0-8.54,9.34,9.3,9.3,0,0,0,2.52,6.38A9.35,9.35,0,0,0,36,35.26V28.94a.35.35,0,0,0-.34-.35.35.35,0,0,0-.35.35v6.32a8.68,8.68,0,1,1-8.89-8.68h.21l.64,0,.23,0v4.26l-.29,0a5.65,5.65,0,0,0-.58,0,4.48,4.48,0,0,0-3.75,6.91l0,.07a.24.24,0,0,0,.06.11A4.47,4.47,0,0,0,31,35.42V16.05h4.25l0,.24a7,7,0,0,0,1.56,3.92l0,.07a.38.38,0,0,0,.09.13l0,0a7.17,7.17,0,0,0,3.89,2.31,7.43,7.43,0,0,0,.93.13l.23,0v4.22h-.27a11.09,11.09,0,0,1-2.69-.48.34.34,0,0,0-.2.66,11.84,11.84,0,0,0,3.51.52.34.34,0,0,0,.34-.34V22.57a.34.34,0,0,0-.34-.34,6.16,6.16,0,0,1-1.36-.15,6.48,6.48,0,0,1-3.43-2l0-.06a.42.42,0,0,0-.06-.08A6.47,6.47,0,0,1,36,15.71a.35.35,0,0,0-.34-.35H30.68a.35.35,0,0,0-.34.35V35.4a3.78,3.78,0,0,1-6.72,2.23l0-.08a.41.41,0,0,0-.05-.09,3.7,3.7,0,0,1-.71-2.2,3.79,3.79,0,0,1,3.78-3.79,3.74,3.74,0,0,1,1.12.18.36.36,0,0,0,.3,0,.35.35,0,0,0,.14-.28v-5a.34.34,0,0,0-.3-.34A9.45,9.45,0,0,0,26.59,25.87Zm8.89-.08a1.16,1.16,0,1,1,1.16-1.16A1.16,1.16,0,0,1,35.48,25.79Zm0-1.8a.65.65,0,1,0,.64.64A.65.65,0,0,0,35.48,24Z"/></svg>