<svg id="Capa_1" data-name="Capa 1" xmlns="http://www.w3.org/2000/svg" viewBox="0 0 60 60"><defs><style>.cls-1{fill:#fff;fill-rule:evenodd;}</style></defs><path class="cls-1" d="M55.94,41.51s-1.19,4.38-2.78,6.13a8.62,8.62,0,0,1-5.46,2.92l-1,.08v0a1.55,1.55,0,0,1-1.29-.49,1.83,1.83,0,0,1,0-2.47,1.59,1.59,0,0,1,1.05-.49v0h.17a6,6,0,0,0,4.39-2c1.31-1.45,1.74-4.73,1.74-4.73s.44-3.85.44-7.71V27.3c0-3.85-.44-7.71-.44-7.71s-.43-3.28-1.74-4.73a6,6,0,0,0-4.39-2C40.45,12.36,30,12.36,30,12.36s-10.45,0-16.59.48a6,6,0,0,0-4.39,2c-1.31,1.45-1.74,4.73-1.74,4.73s-.44,3.86-.44,7.71v5.38c0,3.86.44,7.71.44,7.71S7.71,43.67,9,45.12c1.67,1.9,3.86,1.84,4.83,2,3.51.36,16.15.48,16.15.48a1.77,1.77,0,0,1,0,3.53h-.08c-1.05,0-13-.15-17.09-.58a10,10,0,0,1-6-2.94c-1.59-1.75-2.78-6.13-2.78-6.13a67.88,67.88,0,0,1-.53-8.45V26.92a67.88,67.88,0,0,1,.53-8.45s1.19-4.36,2.78-6.11A8.76,8.76,0,0,1,12.3,9.41C19.71,8.83,30,8.83,30,8.83h0s10.28,0,17.69.58a8.76,8.76,0,0,1,5.46,2.95c1.59,1.75,2.78,6.11,2.78,6.11a67.88,67.88,0,0,1,.53,8.45v6.14a67.88,67.88,0,0,1-.53,8.45ZM36.62,47.64A1.77,1.77,0,1,1,35,49.41,1.71,1.71,0,0,1,36.62,47.64Zm-7.4-9h0a1.54,1.54,0,0,1-.84.26,1.69,1.69,0,0,1-1.63-1.74,1.74,1.74,0,0,1,.88-1.53h0l8.44-4.8h0a.9.9,0,0,0,.46-.8.88.88,0,0,0-.4-.75l-9.88-5.63a.79.79,0,0,0-.37-.1.84.84,0,0,0-.81.84V35.28h0a1.66,1.66,0,1,1-3.31,0V23a3.48,3.48,0,0,1,3.36-3.59,3.16,3.16,0,0,1,1.74.51l0,0,11.42,7a3.44,3.44,0,0,1,.67.55,3.7,3.7,0,0,1,0,5,3.3,3.3,0,0,1-.62.51l-9.05,5.56-.07,0Z"/></svg>