<svg id="Capa_1" data-name="Capa 1" xmlns="http://www.w3.org/2000/svg" viewBox="0 0 153 29"><defs><style>.cls-1{fill:#fff;}.cls-2{fill:#10ccff;}</style></defs><path class="cls-1" d="M16.67,19V6.6a.93.93,0,0,1,.27-.68.87.87,0,0,1,.66-.28h4a1.14,1.14,0,0,1,.74.28,1.37,1.37,0,0,1,.47.66L25.8,15.1l2.94-8.52a1.31,1.31,0,0,1,.47-.66,1.14,1.14,0,0,1,.73-.28H34a.83.83,0,0,1,.65.28.93.93,0,0,1,.27.68V19a.9.9,0,0,1-.28.68.87.87,0,0,1-.66.28H32.19a.91.91,0,0,1-.67-.28.93.93,0,0,1-.27-.68V9.24L27.73,19a1.3,1.3,0,0,1-.49.63,1.16,1.16,0,0,1-.73.27H25.08a1.16,1.16,0,0,1-.73-.27,1.43,1.43,0,0,1-.49-.63L20.35,9.24V19a.9.9,0,0,1-.28.68.87.87,0,0,1-.66.28H17.62a1,1,0,0,1-.95-1Z"/><path class="cls-1" d="M36.6,19l2.5-9.49q1-3.87,6.62-3.88h5.37a.75.75,0,0,1,.61.28.91.91,0,0,1,.25.64V19a.87.87,0,0,1-.28.65.94.94,0,0,1-.67.27H49.13a.91.91,0,0,1-.94-.94V16.48H41.11L40.44,19a1.29,1.29,0,0,1-1.19.94h-2a.66.66,0,0,1-.56-.23.62.62,0,0,1-.16-.39A1.39,1.39,0,0,1,36.6,19Zm5.24-5.35h6.35V8.46H45.35a2.64,2.64,0,0,0-2.63,2Z"/><path class="cls-1" d="M69.64,19.5c0,.29-.17.43-.51.43H66.74a1.61,1.61,0,0,1-.84-.28,2,2,0,0,1-.69-.66l-1.69-2.65A3,3,0,0,0,61,14.71H58.55V19a.9.9,0,0,1-.27.66.87.87,0,0,1-.66.28H55.74a.88.88,0,0,1-.66-.28A.87.87,0,0,1,54.8,19V6.58a.91.91,0,0,1,.27-.66.86.86,0,0,1,.65-.28H64a5.67,5.67,0,0,1,3.74,1.22,4.11,4.11,0,0,1,1.46,3.31q0,2.91-3.76,3.64a3,3,0,0,1,1.11.75,11,11,0,0,1,1.16,1.55L69.48,19A1.15,1.15,0,0,1,69.64,19.5ZM58.55,11.89H62.8a3.89,3.89,0,0,0,1.81-.41,1.37,1.37,0,0,0,.78-1.31,1.36,1.36,0,0,0-.78-1.3,3.77,3.77,0,0,0-1.81-.41H58.55Z"/><path class="cls-1" d="M70.11,19l2.51-9.49c.67-2.58,2.88-3.87,6.61-3.88H84.6a.79.79,0,0,1,.62.28.94.94,0,0,1,.24.64V19a.83.83,0,0,1-.28.65.92.92,0,0,1-.67.27H82.64A.92.92,0,0,1,81.7,19V16.48H74.62L74,19a1.29,1.29,0,0,1-1.19.94h-2a.67.67,0,0,1-.56-.23.69.69,0,0,1-.16-.39A1.39,1.39,0,0,1,70.11,19Zm5.25-5.35H81.7V8.46H78.86a2.64,2.64,0,0,0-2.63,2Z"/><path class="cls-2" d="M88.29,8.47V6.15a.47.47,0,0,1,.47-.47h12.07a.48.48,0,0,1,.48.47V8.47a.49.49,0,0,1-.48.48H88.76A.48.48,0,0,1,88.29,8.47ZM92.2,20.2v-10a.47.47,0,0,1,.47-.47h4.25a.48.48,0,0,1,.48.47v10a.49.49,0,0,1-.48.48H92.67A.48.48,0,0,1,92.2,20.2Z"/><path class="cls-2" d="M109.06,5.68h-3.18a.47.47,0,0,0-.33.14l-2.76,2.72a.45.45,0,0,0-.14.33v8.61a.48.48,0,0,0,.14.34l2.76,2.72a.47.47,0,0,0,.33.14h3.18a.48.48,0,0,0,.47-.48V18.1a.48.48,0,0,0-.47-.48h-.93a.47.47,0,0,1-.47-.47v-8a.47.47,0,0,1,.47-.47h.93a.47.47,0,0,0,.47-.47V6.15A.47.47,0,0,0,109.06,5.68Z"/><path class="cls-2" d="M117.09,8.54l-2.75-2.72a.47.47,0,0,0-.33-.14h-3.22a.47.47,0,0,0-.47.47v2.1a.47.47,0,0,0,.47.47h1a.47.47,0,0,1,.47.47v8a.47.47,0,0,1-.47.47h-1a.48.48,0,0,0-.47.48v2.1a.48.48,0,0,0,.47.48H114a.47.47,0,0,0,.33-.14l2.75-2.72a.48.48,0,0,0,.14-.34V8.87A.45.45,0,0,0,117.09,8.54Z"/><path class="cls-2" d="M120.41,8.54a.47.47,0,0,0-.88.24V20.2a.48.48,0,0,0,.47.48h3.41a.48.48,0,0,0,.47-.48V14.37a.54.54,0,0,0-.06-.25Z"/><path class="cls-2" d="M125,5.91a.48.48,0,0,0-.4-.23h-4.18a.47.47,0,0,0-.4.72l8.51,14.05a.48.48,0,0,0,.4.23h4.21a.48.48,0,0,0,.41-.72Z"/><path class="cls-2" d="M133.46,5.68h-3.41a.47.47,0,0,0-.47.47V12a.42.42,0,0,0,.07.24l3.41,5.61a.47.47,0,0,0,.87-.24V6.15A.47.47,0,0,0,133.46,5.68Z"/></svg>