<svg id="Capa_1" data-name="Capa 1" xmlns="http://www.w3.org/2000/svg" viewBox="0 0 56 57"><defs><style>.cls-1{fill:#d1d1d1;}</style></defs><path class="cls-1" d="M27.62,49.19l-.26,0a2,2,0,0,1-.62-.2l-.16-.08-14-15.64a13.34,13.34,0,0,1-.75-14c.68-1.22,2.38-4.28,5.94-5.1,4.28-1,7.75,2.17,7.89,2.3h0A10.86,10.86,0,0,1,28.1,20c0-.14.1-.27.14-.41a9.11,9.11,0,0,1,3.09-4.7,8.12,8.12,0,0,1,8-.33c4,2,4.77,6.66,5,8.4a13.69,13.69,0,0,1-2,9.58l-.06.09L28.74,48.85A2.07,2.07,0,0,1,27.62,49.19ZM14.2,32.06l13.46,15L40.71,31.35a11.63,11.63,0,0,0,1.67-8.07c-.23-1.52-.83-5.41-4-7a6.13,6.13,0,0,0-6,.17,7.1,7.1,0,0,0-2.33,3.71,7.13,7.13,0,0,0-.65,3.16c0,.4.12,1.27-.71,1.53l-.41.12-.39-.2c-.43-.24-.54-.6-.77-1.4-.37-1.25-1.12-3.86-2.9-5.51-.13-.12-2.82-2.58-6.08-1.83-2.69.63-4,3-4.61,4.07A11.36,11.36,0,0,0,14.2,32.06Z"/><path class="cls-1" d="M27.5,3.5a25,25,0,0,0-25,25,25.82,25.82,0,0,0,.29,3.84,1,1,0,0,0,2-.31,23,23,0,1,1,5,11.06,1,1,0,1,0-1.55,1.27A25,25,0,1,0,27.5,3.5Z"/><path class="cls-1" d="M5.86,36A2,2,0,1,0,8,37.86,2,2,0,0,0,5.86,36Z"/></svg>